/* XPM */
static char *bitcoin[] = {
/* columns rows colors chars-per-pixel */
"16 16 77 1",
"  c #000000",
". c #040404",
"X c #060606",
"o c #090909",
"O c #0B0B0B",
"+ c #0F0F0F",
"@ c #131313",
"# c #171717",
"$ c #191919",
"% c #1F1F1F",
"& c #232323",
"* c #272727",
"= c #282828",
"- c #2A2A2A",
"; c #2C2C2C",
": c #313131",
"> c #353535",
", c #3C3C3C",
"< c #434343",
"1 c #444444",
"2 c #474747",
"3 c #484848",
"4 c #4C4C4C",
"5 c #4F4F4F",
"6 c #525252",
"7 c #535353",
"8 c #575757",
"9 c #585858",
"0 c #595959",
"q c #5D5D5D",
"w c #636363",
"e c #666061",
"r c #6F6466",
"t c #686868",
"y c #746668",
"u c #73686A",
"i c #75686A",
"p c #737373",
"a c #777777",
"s c #7B7B7B",
"d c #7C7C7C",
"f c #818181",
"g c #868686",
"h c #888888",
"j c #8E8E8E",
"k c #8F8F8F",
"l c #909090",
"z c #969696",
"x c #989898",
"c c #9D9B9B",
"v c #9F9D9D",
"b c #A0A0A0",
"n c #A1A1A1",
"m c #A5A5A5",
"M c #A8A3A4",
"N c #A8A8A8",
"B c #ACA9A9",
"V c #AFAFAF",
"C c #B3B3B3",
"Z c #B7B7B7",
"A c #B8B8B8",
"S c #BBBBBB",
"D c #BEBBBB",
"F c #BDBDBD",
"G c #BFBFBF",
"H c #C3C3C3",
"J c #C5C5C5",
"K c #CBCBCB",
"L c #CECECE",
"P c #D3D3D3",
"I c #D5D5D5",
"U c #DBDBDB",
"Y c #EFEFEF",
"T c #F1F1F1",
"R c #F3F3F3",
"E c #FBFBFB",
"W c #FEFEFE",
/* pixels */
"WWWWKf6<28gLWWWW",
"WWTl622:->28lTWW",
"WTpo$#++++##@aTW",
"WlX-eriiyufg0ozW",
"I;+gDMBBvcmC3 ;I",
"gX 0FHFmxnFUd Xh",
"2  #nZnlmHHIV+ 3",
";  +hmmCJFFPH$ ;",
"; o*kHFFFZALF$ ;",
"5X><gzkkdlzzx$ 3",
"hX-qczdkhaaas$Xg",
"I:ogFzllxnmmAq;L",
"Wx$:>%##%-<wtwzW",
"WTa$-&#++#%%osTW",
"WWTvq5,&><6wkYWW",
"WWWELh8>5tkLWWWW"
};
