/* XPM */
static char *bitcoin[] = {
/* columns rows colors chars-per-pixel */
"64 64 76 1",
"  c #010101",
". c #0B0B0B",
"X c #131313",
"o c #1C1C1C",
"O c #232323",
"+ c #2B2B2B",
"@ c #343434",
"# c #3B3B3B",
"$ c #444444",
"% c #4B4B4B",
"& c #4F5050",
"* c #545454",
"= c #585656",
"- c #585857",
"; c #5C5C5C",
": c #625758",
"> c #605E5F",
", c #6E5B5D",
"< c #725C5F",
"1 c #6E5E60",
"2 c #646464",
"3 c #6C6364",
"4 c #6C6B6B",
"5 c #746164",
"6 c #7A6367",
"7 c #726768",
"8 c #7D666A",
"9 c #736E6F",
"0 c #796B6D",
"q c #7F6E70",
"w c #747373",
"e c #7C7475",
"r c #777876",
"t c #7B7B7B",
"y c #83666A",
"u c #83696D",
"i c #846E72",
"p c #8B6F73",
"a c #827174",
"s c #8A7477",
"d c #807D7D",
"f c #91767B",
"g c #947C80",
"h c #848484",
"j c #8C8C8C",
"k c #968385",
"l c #928F8F",
"z c #9E8A8D",
"x c #939393",
"c c #9C9C9C",
"v c #A68E92",
"b c #A29093",
"n c #AB9699",
"m c #A8999C",
"M c #9FA09F",
"N c #B09BA0",
"B c #A4A4A4",
"V c #AFA5A6",
"C c #ABABAB",
"Z c #B3ADAE",
"A c #B8ABAD",
"S c #B4B4B4",
"D c #BFB2B4",
"F c #BFB7B8",
"G c #BCBCBC",
"H c #C6BDBD",
"J c #BFC0BF",
"K c #C3C3C3",
"L c #CBCBCB",
"P c #CFD0CE",
"I c #D4D4D4",
"U c #DBDBDB",
"Y c #E4E4E4",
"T c #ECECEC",
"R c #F2F2F2",
"E c #FEFEFE",
/* pixels */
"EEEEEEEEEEEEEEEEEEEEEEERUGct4>*&*;24hcGIREEEEEEEEEEEEEEEEEEEEEEE",
"EEEEEEEEEEEEEEEEEEEERUCt-#OoX....XXoO#%2hBPTEEEEEEEEEEEEEEEEEEEE",
"EEEEEEEEEEEEEEEEEETSh;+X..+@X+#$#&+o@OXXO$2lSYEEEEEEEEEEEEEEEEEE",
"EEEEEEEEEEEEEEEETSt#ooo@-=2w*%wt29;%;22*OXX+>lGYEEEEEEEEEEEEEEEE",
"EEEEEEEEEEEEEERKj%o.X;-29w2w4;2944>@&rj4>;%@XO2BKREEEEEEEEEEEEEE",
"EEEEEEEEEEEEEUB4++@$#w4-4244r@+>>*2@+2*;4r;2%=O@dCUEEEEEEEEEEEEE",
"EEEEEEEEEEERLx%.#4wr$%2r2>$#+ .XXXO.X+#$---www;#X-MLREEEEEEEEEEE",
"EEEEEEEEEERGr+  +>-w2+##X.            ..O#$22w2+  @hGREEEEEEEEEE",
"EEEEEEEEERSto   .#42#.                    .O+;o    otSTEEEEEEEEE",
"EEEEEEEETCrX     X#o                        .X      XtSTEEEEEEEE",
"EEEEEEERCwX                                          XrSREEEEEEE",
"EEEEEEESrX      .                                .o   XtGEEEEEEE",
"EEEEEELho      X.   .+$$%=-21>444422;1;-%$%%%@ X@wt.   OxLEEEEEE",
"EEEEEUx@      o=*=3dlBSZFAAAVskmbzzzzNzmSLILSthSGSjX    @BUEEEEE",
"EEEERB-       O4GDfknvffaafiq5,iy8667i8qxCBBSLYYPSr      2STEEEE",
"EEEEKjX      O2xGH6<upy558851q,u65<5i77:tBCBBSGGJZ%      XjKEEEE",
"EEEYB#      X#hKLLee0337t9wdxcxetxxjr4rrCBxMBjhcBtX       #CYEEE",
"EEEGt.     .%tCGHPSCBcBSSSSJKJJGKJBxMSSBCBCCBxjh2o        .tKEEE",
"EEYB#     .%jSGGGLYPGSGGKGGJJKKKClcSSGGGSGSxjBLUto         @CTEE",
"EELj.      OxKLGSKYLGGGGJKKJJKGBcBSJSBCCjjxBGUTRG%         .hKEE",
"ERS%        OxLGGJILKGGKGJKJJSMCBBCBxhjjjMGLIUTRTwo         $SRE",
"EUxo         +cGSSLKKJGJJJLGCCCMcccjdrhcKLLIIIURRC#         XcUE",
"EG4           %CCCLKKKGKKLSBCCSMxhjhjhcKLKLLLIIYRU2.         wLE",
"TC%           XhCCKKKKGKKGcxjxCBccjxxCKKKKKLLLUYTThO         $GT",
"UBO            *BBJLJKJJCMCMjdhlxcxlCKKKGKKKLLUYYTC@         oCY",
"Kj.            +cCGLKJKCMCcMBMjjjhxSLKLKKKKKKLLTYRK$         .xI",
"Sw             XgCGIKGBBCCBMBBBljBGLLKKKKKGKKLLUTTU;.         tK",
"S;              2CKLSxCCxxxMtrrrBLLKKKKKKKKKLLIIYTYwX         2G",
"C%              &BJJcCBcxcxhwtMGKLLKKKJJGGGKLLIIYYTho         %S",
"C#              #BBCCxjjlMxhMSKKKLKKKKKGGGGKKLIIYTTx+         #S",
"B@              #hSJBhxMCSGJJKKKLKLKJKJGGGGGKIIUYTTc+         +S",
"B+             OwcSjhjSKKKKKKKKKLLKKKJGGSGSGKLUYYTTx+         OC",
"c+            @r4wKMCJKKKKKKJJJKKKKKJJGGSSGGJPUYTTTx+         +B",
"C@           $d#ojPIILLJKKJJJKKKKKKKGGGSSSSGKLIUUTYj+         +C",
"S$          X#o XxUUIIPLKKJGSGJJKKKKGGGSSSGGJLIUYYUjO         @C",
"S*       .+@X+. XBUUUILGGJJSSGJSKKSBGSSSSSSGKLIUYYIj+         $S",
"G4       #-+;++%OxxBLPGw2CGZSCl22c2rCSCCSSSGKGtcUTYM+         -G",
"Kt      #r*>>#4&@CCwwBxr;hSSCc;t2$&;cCCSCSMCJjh2GIIM@         rK",
"Kx.    .X&>O;%#$;CjSh2h>4rBShcr4x-r>jhCBBc2xchttC4CB+        .jL",
"UCO      #;X&#o-rjjxC;B*2;td2wCBCr4r>4c244;>tc2M4wwMO        ocU",
"RS%      @-X$$o4jdxCLwCtwB;2twCSSj44t;;jw42%*x4h>hjco        $CT",
"EKt      +2O--$jM-SKCjjBwG4%rCcSGhww;h4hj;*wwhwt44LjX        wKE",
"EUCo     Ow-2;>jP;2xSchBtc42-txSJhlr-x-wj4-;4w222;cto       ocIE",
"ERG*     X2oo+*KTGwCPB;tw4xS242>tjxj**w&hj4%2rc4htjC+       %CRE",
"EEKx.    Xo  .xRRJLPLj424tBcjrxcr>1jjcBhGGC4rSMxCxLL;       hKEE",
"EEYS$        %PRTUIILGKJGKGBKccKKGGGSGCSGGChSGMSBSUUG$.    @xYEE",
"EEEKx.      OBTTYUPULJKKKKGKKKKKKJJJGGKGGSCSKKSGGLUUIGw+  .wSEEE",
"EEETG*     XrIYYPGBcjtttthhjxcBCCSSGGGKGSGKLKKKKKLUIGCx;  #xYEEE",
"EEEEIBo   .*CCt-%##+OOOoXoooooOOO+#$%;9dhhxBBCSCBBBBccc= XrSEEEE",
"EEEETGr   O$+.  +@.                  ..Xo+#%2rhxcjhcBcBrX;xTEEEE",
"EEEEEUC$  .    X;$oX                       .@@@#*>>tt4t%$lIEEEEE",
"EEEEEELx+       Oo&&.                     XO=#   ....XX+hJEEEEEE",
"EEEEEEEGjo       .#O+#..                XX-#+o        otBEEEEEEE",
"EEEEEEERGho    XX...$$+$X .          .oO*#Oo.        XrBREEEEEEE",
"EEEEEEEETSho   $2$...X+%+=#o#o.o.oXO$@;#+o   +o     o4cTEEEEEEEE",
"EEEEEEEEERCh+ o4t42$...XX+o+$@$%@*##$+oX  .o$22O   OwcTEEEEEEEEE",
"EEEEEEEEEERGx$.$;2t22#O.   ...oXXX..   ..o=;tw;&X @wBTEEEEEEEEEE",
"EEEEEEEEEEERKc=+@*442>r%&+X         XO+=244r-2t4@%tGEEEEEEEEEEEE",
"EEEEEEEEEEEEEUBr#+$-;2rrr42%@  @#%%**4*2w442r4%$4xIEEEEEEEEEEEEE",
"EEEEEEEEEEEEEERGj>#+$&>24wtr;+.>-tw4222>4ww;%#-dSTEEEEEEEEEEEEEE",
"EEEEEEEEEEEEEEEEYCt-#++$*-%rO@&*442>4>w4w;@@-tBYEEEEEEEEEEEEEEEE",
"EEEEEEEEEEEEEEEEEEYSt;$@+XO# XoO2#>;2>&$#$2hSYEEEEEEEEEEEEEEEEEE",
"EEEEEEEEEEEEEEEEEEEERPBt2%#+oXXoOo++@#%;tBLREEEEEEEEEEEEEEEEEEEE",
"EEEEEEEEEEEEEEEEEEEEEEERISxd2*&%$*>4rjSITEEEEEEEEEEEEEEEEEEEEEEE"
};
