/* XPM */
static char *bitcoin[] = {
/* columns rows colors chars-per-pixel */
"32 32 46 1",
"  c #010101",
". c #070808",
"X c #0B0B0B",
"o c #141414",
"O c #1B1B1B",
"+ c #242424",
"@ c #2B2B2B",
"# c #343434",
"$ c #3C3C3C",
"% c #434343",
"& c #4B4B4B",
"* c #545454",
"= c #5C5B5B",
"- c #636363",
"; c #6C6C6C",
": c #756C6D",
"> c #7C6B6D",
", c #7C6E70",
"< c #737373",
"1 c #7B7576",
"2 c #7D7C7C",
"3 c #816A6E",
"4 c #857275",
"5 c #8A787A",
"6 c #957F82",
"7 c #838383",
"8 c #8C8687",
"9 c #8B8B8B",
"0 c #908E8E",
"q c #949393",
"w c #9D9697",
"e c #9C9C9C",
"r c #A3A3A3",
"t c #A8A7A7",
"y c #ABABAB",
"u c #B1ACAC",
"i c #B4B4B4",
"p c #BBBBBB",
"a c #C3C3C3",
"s c #CACACA",
"d c #D4D4D4",
"f c #DCDCDC",
"g c #E3E3E3",
"h c #EBEBEB",
"j c #F2F2F2",
"k c #FEFEFE",
/* pixels */
"kkkkkkkkkkhi2&#@#$*7ihkkkkkkkkkk",
"kkkkkkkkgq*@$%$**$%$#=egkkkkkkkk",
"kkkkkkjy*@$-;;**-&*;=&$-ijkkkkkk",
"kkkkkg2+%;&&$+o.XXo+$=;%+7gkkkkk",
"kkkkf;X O%o.         o@X X;gkkkk",
"kkkg;X       .......    ...<gkkk",
"kkj7X  +#$=<15::1:>:27;=7% X9jkk",
"kki+  X-u56444>>33>,eyisp$  +pkk",
"kg=  .&raw80qetreq0qrrqe-X   =gk",
"kiO  Oeaadpppaapryiyrrid;.   Oik",
"h;    %ipsapaaitre90ysdjiO    ;h",
"s#     -yaaapterq9qpassgg&    #d",
"rO     +eaaptrq0qrpaaaadh2.   oy",
"7.     X8sitee99rasaaasdhe.   .9",
";       ;irqeqqiasappasdhio    ;",
"=      o<yqyipaasaapppsdhpO    -",
"=     o&;apsaaaaaappipafhiO    =",
"<    O+o=ddappippppiipadgyO    ;",
"9.  #*%$;et97ir2<;riyiy0diO   .7",
"tO  @%%%7e9<;0792;207<9770O   Or",
"d$  O%%=7rr99-2ye<;<<=<<<9o   #s",
"h<  o&$9yqt277<997;;7-<229O   ;h",
"kiO ..+afdpqeyeeeerriqerya-. oyk",
"kh;  X7fsieeeeryyippipapadi=.*gk",
"kka# @-%%+OooooOO@#&*;7eerr<@ykk",
"kkjqo  .@@.          O$@#$%&9hkk",
"kkkg2X .oO@+o..   .O@@o   .;gkkk",
"kkkkf<o@=#OO++@++@@@oo#@ X;dkkkk",
"kkkkkg9%*;*$+oXoooO+$=;=@2fkkkkk",
"kkkkkkjy=%*;;=@+**=-<-=-yhkkkkkk",
"kkkkkkkkfe=%%%+$*===*-edkkkkkkkk",
"kkkkkkkkkkgi2*#@$&=7igkkkkkkkkkk"
};
